<svg xmlns="http://www.w3.org/2000/svg" viewBox="0 0 36 36">
  <!-- Menubar template glyph: firebox door — squarish door plate with an
       arched viewing window, fire visible inside. The flame is what makes
       it read "firebox" (not padlock/mailbox) at 18pt. -->
  <path fill="#000" fill-rule="evenodd" d="
    M8 33 a2.5 2.5 0 0 1 -2.5 -2.5 V8 A2.5 2.5 0 0 1 8 5.5 h20 A2.5 2.5 0 0 1 30.5 8 v22.5 a2.5 2.5 0 0 1 -2.5 2.5 Z
    M10.5 29 h15 V17.5 a7.5 7.5 0 0 0 -15 0 Z"/>
  <!-- flame inside the window -->
  <path fill="#000" d="
    M18 27.5
    c-2.9 0 -4.6 -1.7 -4.6 -4
    c0 -1.9 1.2 -3.1 2.1 -4.4
    c0.7 -1 1.3 -2 1.5 -3.4
    c1.3 1 3 2.7 3 4.6
    c0.6 -0.4 1 -1 1.1 -1.8
    c0.9 1 1.5 2.3 1.5 3.6
    c0 3 -1.9 5.4 -4.6 5.4 Z"/>
</svg>
